<svg class="diagram-root" style="background: #f5f6f6" xmlns="http://www.w3.org/2000/svg" xmlns:xlink="http://www.w3.org/1999/xlink"><style>.diagram-root { font-family: "Helvetica Neue", sans-serif; font-size: 12px; } .t { overflow: visible; } .t-bg { y: 40; fill: #fff;   } .th { fill: #005aa0;   } .tht { fill: #fff; font-size: 14px;  } .tf { fill: #323c46; overflow: visible; } .tf.pk { fill: #005aa0; font-weight: bold; } .tf.fk { font-weight: bold; } .ty { fill: #adb1b5; font-weight: normal; text-anchor: end; } .r { fill: transparent; stroke: #c3c3c3; stroke-width: 1; } .l { stroke: 1; } .i { fill: #c2c7ce; stroke: #c2c7ce; } .i.ix { fill: #afb3b6; stroke: #000; } .fa { fill: transparent; overflow: visible; } .fa .bg.hover { fill: #f7f7f7; } .c { cy: 12; r: 4; stroke: #d2d2dc; fill: #d2d2dc; } .hr { fill: transparent; stroke: #323c46; stroke-opacity: 0.035; stroke-width: 13; } .dc { stroke: #fa5a3c; fill: #fa5a3c; } .x { stroke: white; stroke-width: 1; } .hl .th { fill: #1b9bff; } .hl .tht {  } .fhl .bg { fill: #e7f4ff; } .fhls .bg {  } .r.hl { stroke: #1b9bff; } .dim { opacity: 0.25; }</style><g class="drawing-wrapper" transform="translate(123.28571428571429, 63.7) scale(1,1)"><g class="rs"><path d="M 286.57 49.86 m -1, 0 a 1,1 0 1,0 2,0 a 1,1 0 1,0 -2,0 M 286.57 49.86 m -0.5, 0 a 0.5,0.5 0 1,0 1,0 a 0.5,0.5 0 1,0 -1,0  M286.57 49.86 L286.57 49.86 274.57 49.86 M 286.57 55.86 m -1, 0 a 1,1 0 1,0 2,0 a 1,1 0 1,0 -2,0 M 286.57 55.86 m -0.5, 0 a 0.5,0.5 0 1,0 1,0 a 0.5,0.5 0 1,0 -1,0  M286.57 55.86 L286.57 55.86 279.57 49.86 286.57 43.86 M 286.57 43.86 m -1, 0 a 1,1 0 1,0 2,0 a 1,1 0 1,0 -2,0 M 286.57 43.86 m -0.5, 0 a 0.5,0.5 0 1,0 1,0 a 0.5,0.5 0 1,0 -1,0  M274.57 49.86 Q 236.9 49.86, 199.22 37.24 T 123.87 24.619999999999997 M 111.87 24.619999999999997 m -1, 0 a 1,1 0 1,0 2,0 a 1,1 0 1,0 -2,0 M 111.87 24.619999999999997 m -0.5, 0 a 0.5,0.5 0 1,0 1,0 a 0.5,0.5 0 1,0 -1,0  M111.87 24.619999999999997 L111.87 24.619999999999997 123.87 24.619999999999997 M117.87 30.619999999999997 L117.87 30.619999999999997 117.87 18.619999999999997" id="h1309620017" class="r"></path><path d="M 286.57 149.86 m -1, 0 a 1,1 0 1,0 2,0 a 1,1 0 1,0 -2,0 M 286.57 149.86 m -0.5, 0 a 0.5,0.5 0 1,0 1,0 a 0.5,0.5 0 1,0 -1,0  M286.57 149.86 L286.57 149.86 274.57 149.86 M 286.57 155.86 m -1, 0 a 1,1 0 1,0 2,0 a 1,1 0 1,0 -2,0 M 286.57 155.86 m -0.5, 0 a 0.5,0.5 0 1,0 1,0 a 0.5,0.5 0 1,0 -1,0  M286.57 155.86 L286.57 155.86 279.57 149.86 286.57 143.86 M 286.57 143.86 m -1, 0 a 1,1 0 1,0 2,0 a 1,1 0 1,0 -2,0 M 286.57 143.86 m -0.5, 0 a 0.5,0.5 0 1,0 1,0 a 0.5,0.5 0 1,0 -1,0  M274.57 149.86 Q 249.84 149.86, 225.11 269.73 T 175.65 389.6 M 163.65 389.6 m -1, 0 a 1,1 0 1,0 2,0 a 1,1 0 1,0 -2,0 M 163.65 389.6 m -0.5, 0 a 0.5,0.5 0 1,0 1,0 a 0.5,0.5 0 1,0 -1,0  M163.65 389.6 L163.65 389.6 175.65 389.6 M169.65 395.6 L169.65 395.6 169.65 383.6" id="h642639209" class="r"></path><path d="M 808.71 73.3 m -1, 0 a 1,1 0 1,0 2,0 a 1,1 0 1,0 -2,0 M 808.71 73.3 m -0.5, 0 a 0.5,0.5 0 1,0 1,0 a 0.5,0.5 0 1,0 -1,0  M808.71 73.3 L808.71 73.3 820.71 73.3 M 808.71 79.3 m -1, 0 a 1,1 0 1,0 2,0 a 1,1 0 1,0 -2,0 M 808.71 79.3 m -0.5, 0 a 0.5,0.5 0 1,0 1,0 a 0.5,0.5 0 1,0 -1,0  M808.71 79.3 L808.71 79.3 815.71 73.3 808.71 67.3 M 808.71 67.3 m -1, 0 a 1,1 0 1,0 2,0 a 1,1 0 1,0 -2,0 M 808.71 67.3 m -0.5, 0 a 0.5,0.5 0 1,0 1,0 a 0.5,0.5 0 1,0 -1,0  M820.71 73.3 Q 868.18 73.3, 915.65 208.04 T 1010.59 342.78 M 1022.59 342.78 m -1, 0 a 1,1 0 1,0 2,0 a 1,1 0 1,0 -2,0 M 1022.59 342.78 m -0.5, 0 a 0.5,0.5 0 1,0 1,0 a 0.5,0.5 0 1,0 -1,0  M1022.59 342.78 L1022.59 342.78 1010.59 342.78 M1016.59 348.78 L1016.59 348.78 1016.59 336.78" id="h2100493736" class="r"></path><path d="M 1245.69 127.56 m -1, 0 a 1,1 0 1,0 2,0 a 1,1 0 1,0 -2,0 M 1245.69 127.56 m -0.5, 0 a 0.5,0.5 0 1,0 1,0 a 0.5,0.5 0 1,0 -1,0  M1245.69 127.56 L1245.69 127.56 1257.69 127.56 M 1245.69 133.56 m -1, 0 a 1,1 0 1,0 2,0 a 1,1 0 1,0 -2,0 M 1245.69 133.56 m -0.5, 0 a 0.5,0.5 0 1,0 1,0 a 0.5,0.5 0 1,0 -1,0  M1245.69 133.56 L1245.69 133.56 1252.69 127.56 1245.69 121.56 M 1245.69 121.56 m -1, 0 a 1,1 0 1,0 2,0 a 1,1 0 1,0 -2,0 M 1245.69 121.56 m -0.5, 0 a 0.5,0.5 0 1,0 1,0 a 0.5,0.5 0 1,0 -1,0  M1257.69 127.56 C 1307.69 127.56, 1328.786 640.26, 1222.53 640.26 M 1210.53 640.26 m -1, 0 a 1,1 0 1,0 2,0 a 1,1 0 1,0 -2,0 M 1210.53 640.26 m -0.5, 0 a 0.5,0.5 0 1,0 1,0 a 0.5,0.5 0 1,0 -1,0  M1210.53 640.26 L1210.53 640.26 1222.53 640.26 M1216.53 646.26 L1216.53 646.26 1216.53 634.26" id="h1364044931" class="r"></path><path d="M 163.65 439.6 m -1, 0 a 1,1 0 1,0 2,0 a 1,1 0 1,0 -2,0 M 163.65 439.6 m -0.5, 0 a 0.5,0.5 0 1,0 1,0 a 0.5,0.5 0 1,0 -1,0  M163.65 439.6 L163.65 439.6 175.65 439.6 M 163.65 445.6 m -1, 0 a 1,1 0 1,0 2,0 a 1,1 0 1,0 -2,0 M 163.65 445.6 m -0.5, 0 a 0.5,0.5 0 1,0 1,0 a 0.5,0.5 0 1,0 -1,0  M163.65 445.6 L163.65 445.6 170.65 439.6 163.65 433.6 M 163.65 433.6 m -1, 0 a 1,1 0 1,0 2,0 a 1,1 0 1,0 -2,0 M 163.65 433.6 m -0.5, 0 a 0.5,0.5 0 1,0 1,0 a 0.5,0.5 0 1,0 -1,0  M175.65 439.6 Q 195.55 439.6, 215.44 468.17 T 255.22000000000003 496.73 M 267.22 496.73 m -1, 0 a 1,1 0 1,0 2,0 a 1,1 0 1,0 -2,0 M 267.22 496.73 m -0.5, 0 a 0.5,0.5 0 1,0 1,0 a 0.5,0.5 0 1,0 -1,0  M267.22 496.73 L267.22 496.73 255.22000000000003 496.73 M261.22 502.73 L261.22 502.73 261.22 490.73" id="h2521816266" class="r"></path><path d="M 641.24 298.89 m -1, 0 a 1,1 0 1,0 2,0 a 1,1 0 1,0 -2,0 M 641.24 298.89 m -0.5, 0 a 0.5,0.5 0 1,0 1,0 a 0.5,0.5 0 1,0 -1,0  M641.24 298.89 L641.24 298.89 629.24 298.89 M 641.24 304.89 m -1, 0 a 1,1 0 1,0 2,0 a 1,1 0 1,0 -2,0 M 641.24 304.89 m -0.5, 0 a 0.5,0.5 0 1,0 1,0 a 0.5,0.5 0 1,0 -1,0  M641.24 304.89 L641.24 304.89 634.24 298.89 641.24 292.89 M 641.24 292.89 m -1, 0 a 1,1 0 1,0 2,0 a 1,1 0 1,0 -2,0 M 641.24 292.89 m -0.5, 0 a 0.5,0.5 0 1,0 1,0 a 0.5,0.5 0 1,0 -1,0  M629.24 298.89 Q 601.37 298.89, 573.49 161.88 T 517.73 24.86 M 505.73 24.86 m -1, 0 a 1,1 0 1,0 2,0 a 1,1 0 1,0 -2,0 M 505.73 24.86 m -0.5, 0 a 0.5,0.5 0 1,0 1,0 a 0.5,0.5 0 1,0 -1,0  M505.73 24.86 L505.73 24.86 517.73 24.86 M511.73 30.86 L511.73 30.86 511.73 18.86" id="h745484025" class="r"></path><path d="M 838.63 348.89 m -1, 0 a 1,1 0 1,0 2,0 a 1,1 0 1,0 -2,0 M 838.63 348.89 m -0.5, 0 a 0.5,0.5 0 1,0 1,0 a 0.5,0.5 0 1,0 -1,0  M838.63 348.89 L838.63 348.89 850.63 348.89 M 838.63 354.89 m -1, 0 a 1,1 0 1,0 2,0 a 1,1 0 1,0 -2,0 M 838.63 354.89 m -0.5, 0 a 0.5,0.5 0 1,0 1,0 a 0.5,0.5 0 1,0 -1,0  M838.63 354.89 L838.63 354.89 845.63 348.89 838.63 342.89 M 838.63 342.89 m -1, 0 a 1,1 0 1,0 2,0 a 1,1 0 1,0 -2,0 M 838.63 342.89 m -0.5, 0 a 0.5,0.5 0 1,0 1,0 a 0.5,0.5 0 1,0 -1,0  M850.63 348.89 Q 890.62 348.89, 930.61 370.84 T 1010.59 392.78 M 1022.59 392.78 m -1, 0 a 1,1 0 1,0 2,0 a 1,1 0 1,0 -2,0 M 1022.59 392.78 m -0.5, 0 a 0.5,0.5 0 1,0 1,0 a 0.5,0.5 0 1,0 -1,0  M1022.59 392.78 L1022.59 392.78 1010.59 392.78 M1016.59 398.78 L1016.59 398.78 1016.59 386.78" id="h543719277" class="r"></path></g><g class="hrs"></g><g class="ts"><svg width="213.16" height="175" x="-101.29" y="-32.38" id="h1304670300" class="t"><rect height="40" width="213.16" class="th"></rect><text x="13" y="25" class="tht">Customer</text><rect height="135" width="213.16" class="t-bg"></rect><text x="13" y="61" class="tf pk">CustomerID<tspan x="200.16" class="ty">int</tspan></text><path d="M7,14A2,2 0 0,1 5,12A2,2 0 0,1 7,10A2,2 0 0,1 9,12A2,2 0 0,1 7,14M12.65,10C11.83,7.67 9.61,6 7, 6A6, 6 0 0, 0 1, 12A6, 6 0 0, 0 7, 18C9.61, 18 11.83, 16.33 12.65, 14H17V18H21V14H23V10H12.65Z" class="i pk" transform="translate(167.486171875, 48) scale(0.65)"></path><text x="13" y="86" class="tf">Name<tspan x="200.16" class="ty">VARCHAR(100)</tspan></text><text x="13" y="111" class="tf">Address<tspan x="200.16" class="ty">VARCHAR(255)</tspan></text><text x="13" y="136" class="tf">ContractNumber<tspan x="200.16" class="ty">VARCHAR(20)</tspan></text><text x="13" y="161" class="tf">Email<tspan x="200.16" class="ty">VARCHAR(100)</tspan></text></svg><svg width="219.16" height="200" x="286.57" y="-32.14" id="h4176899315" class="t"><rect height="40" width="219.16" class="th"></rect><text x="13" y="25" class="tht">Order</text><rect height="160" width="219.16" class="t-bg"></rect><text x="13" y="61" class="tf pk">OrderID<tspan x="206.16" class="ty">int</tspan></text><path d="M7,14A2,2 0 0,1 5,12A2,2 0 0,1 7,10A2,2 0 0,1 9,12A2,2 0 0,1 7,14M12.65,10C11.83,7.67 9.61,6 7, 6A6, 6 0 0, 0 1, 12A6, 6 0 0, 0 7, 18C9.61, 18 11.83, 16.33 12.65, 14H17V18H21V14H23V10H12.65Z" class="i pk" transform="translate(173.486171875, 48) scale(0.65)"></path><text x="13" y="86" class="tf fk">CustomerID<tspan x="206.16" class="ty">int</tspan></text><text x="13" y="111" class="tf">OrderDate<tspan x="206.16" class="ty">DATETIME</tspan></text><text x="13" y="136" class="tf">TotalAmount<tspan x="206.16" class="ty">DECIMAL(10.2)</tspan></text><text x="13" y="161" class="tf">DeliveryAddress<tspan x="206.16" class="ty">VARCHAR(255)</tspan></text><text x="13" y="186" class="tf fk">DeliveryPersonalID<tspan x="206.16" class="ty">int</tspan></text></svg><svg width="114.01" height="125" x="694.7" y="-33.7" id="h2655947605" class="t"><rect height="40" width="114.01" class="th"></rect><text x="13" y="25" class="tht">OrderItem</text><rect height="85" width="114.01" class="t-bg"></rect><text x="13" y="61" class="tf">OrderID<tspan x="101.01" class="ty">int</tspan></text><text x="13" y="86" class="tf pk">ItemID<tspan x="101.01" class="ty">int</tspan></text><path d="M7,14A2,2 0 0,1 5,12A2,2 0 0,1 7,10A2,2 0 0,1 9,12A2,2 0 0,1 7,14M12.65,10C11.83,7.67 9.61,6 7, 6A6, 6 0 0, 0 1, 12A6, 6 0 0, 0 7, 18C9.61, 18 11.83, 16.33 12.65, 14H17V18H21V14H23V10H12.65Z" class="i pk" transform="translate(68.336171875, 73) scale(0.65)"></path><text x="13" y="111" class="tf fk">Quantity<tspan x="101.01" class="ty">int</tspan></text></svg><svg width="162.04" height="150" x="1083.65" y="-4.44" id="h3310747214" class="t"><rect height="40" width="162.04" class="th"></rect><text x="13" y="25" class="tht">MenuItem</text><rect height="110" width="162.04" class="t-bg"></rect><text x="13" y="61" class="tf pk">ItemID<tspan x="149.04" class="ty">int</tspan></text><path d="M7,14A2,2 0 0,1 5,12A2,2 0 0,1 7,10A2,2 0 0,1 9,12A2,2 0 0,1 7,14M12.65,10C11.83,7.67 9.61,6 7, 6A6, 6 0 0, 0 1, 12A6, 6 0 0, 0 7, 18C9.61, 18 11.83, 16.33 12.65, 14H17V18H21V14H23V10H12.65Z" class="i pk" transform="translate(116.36617187499999, 48) scale(0.65)"></path><text x="13" y="86" class="tf">Name<tspan x="149.04" class="ty">varchar(200)</tspan></text><path d="M22,18V22H18V19H15V16H12L9.74,13.74C9.19,13.91 8.61,14 8,14A6,6 0 0,1 2,8A6,6 0 0,1 8,2A6,6 0 0,1 14,8C14,8.61 13.91, 9.19 13.74, 9.74L22, 18M7, 5A2, 2 0 0, 0 5, 7A2, 2 0 0, 0 7, 9A2, 2 0 0, 0 9, 7A2, 2 0 0, 0 7, 5Z" class="i uq" transform="translate(65.01265624999999, 75.5) scale(0.5)"></path><text x="13" y="111" class="tf">Price<tspan x="149.04" class="ty">DECIMAL(10.2)</tspan></text><text x="13" y="136" class="tf fk">RestaurentID<tspan x="149.04" class="ty">int</tspan></text></svg><svg width="213.16" height="150" x="-49.51" y="332.6" id="h4009455311" class="t"><rect height="40" width="213.16" class="th"></rect><text x="13" y="25" class="tht">DeliveryPerson</text><rect height="110" width="213.16" class="t-bg"></rect><text x="13" y="61" class="tf pk">DeliveryPersonalId<tspan x="200.16" class="ty">int</tspan></text><path d="M7,14A2,2 0 0,1 5,12A2,2 0 0,1 7,10A2,2 0 0,1 9,12A2,2 0 0,1 7,14M12.65,10C11.83,7.67 9.61,6 7, 6A6, 6 0 0, 0 1, 12A6, 6 0 0, 0 7, 18C9.61, 18 11.83, 16.33 12.65, 14H17V18H21V14H23V10H12.65Z" class="i pk" transform="translate(167.486171875, 48) scale(0.65)"></path><text x="13" y="86" class="tf">Name<tspan x="200.16" class="ty">VARCHAR(100)</tspan></text><path d="M22,18V22H18V19H15V16H12L9.74,13.74C9.19,13.91 8.61,14 8,14A6,6 0 0,1 2,8A6,6 0 0,1 8,2A6,6 0 0,1 14,8C14,8.61 13.91, 9.19 13.74, 9.74L22, 18M7, 5A2, 2 0 0, 0 5, 7A2, 2 0 0, 0 7, 9A2, 2 0 0, 0 9, 7A2, 2 0 0, 0 7, 5Z" class="i uq" transform="translate(98.361171875, 75.5) scale(0.5)"></path><text x="13" y="111" class="tf fk">VehicleID<tspan x="200.16" class="ty">int</tspan></text><text x="13" y="136" class="tf">ContractNumber<tspan x="200.16" class="ty">VARCHAR(28)</tspan></text></svg><svg width="238.51" height="150" x="267.22" y="439.73" id="h204373949" class="t"><rect height="40" width="238.51" class="th"></rect><text x="13" y="25" class="tht">Vehicles</text><rect height="110" width="238.51" class="t-bg"></rect><text x="13" y="61" class="tf pk">VehicleID<tspan x="225.51" class="ty">int</tspan></text><path d="M7,14A2,2 0 0,1 5,12A2,2 0 0,1 7,10A2,2 0 0,1 9,12A2,2 0 0,1 7,14M12.65,10C11.83,7.67 9.61,6 7, 6A6, 6 0 0, 0 1, 12A6, 6 0 0, 0 7, 18C9.61, 18 11.83, 16.33 12.65, 14H17V18H21V14H23V10H12.65Z" class="i pk" transform="translate(192.836171875, 48) scale(0.65)"></path><text x="13" y="86" class="tf">Type<tspan x="225.51" class="ty">VARCHAR(100)</tspan></text><text x="13" y="111" class="tf">RegistrationNumber<tspan x="225.51" class="ty">VARCHAR(100)</tspan></text><text x="13" y="136" class="tf">AvailabilityStatus<tspan x="225.51" class="ty">VARCHAR(100)</tspan></text></svg><svg width="217.39" height="150" x="1022.59" y="260.78" id="h128109766" class="t"><rect height="40" width="217.39" class="th"></rect><text x="13" y="25" class="tht">AddToCart</text><rect height="110" width="217.39" class="t-bg"></rect><text x="13" y="61" class="tf">ItemID<tspan x="204.39" class="ty">int</tspan></text><text x="13" y="86" class="tf fk">Quantity<tspan x="204.39" class="ty">int</tspan></text><text x="13" y="111" class="tf">Price<tspan x="204.39" class="ty">DECIMAL(10.2)</tspan></text><text x="13" y="136" class="tf pk">TotalAmount<tspan x="204.39" class="ty">DECIMAL(10.2)</tspan></text><path d="M7,14A2,2 0 0,1 5,12A2,2 0 0,1 7,10A2,2 0 0,1 9,12A2,2 0 0,1 7,14M12.65,10C11.83,7.67 9.61,6 7, 6A6, 6 0 0, 0 1, 12A6, 6 0 0, 0 7, 18C9.61, 18 11.83, 16.33 12.65, 14H17V18H21V14H23V10H12.65Z" class="i pk" transform="translate(99.69859374999999, 123) scale(0.65)"></path></svg><svg width="178.47" height="225" x="641.38" y="522.81" id="h3673696001" class="t"><rect height="40" width="178.47" class="th"></rect><text x="13" y="25" class="tht">DeliveryTracking</text><rect height="185" width="178.47" class="t-bg"></rect><text x="13" y="61" class="tf">TrakingID<tspan x="165.47" class="ty">int</tspan></text><text x="13" y="86" class="tf">OrderID<tspan x="165.47" class="ty">int</tspan></text><text x="13" y="111" class="tf">DeleveryDate<tspan x="165.47" class="ty">DATETIME</tspan></text><text x="13" y="136" class="tf">DeliveryPersonalId<tspan x="165.47" class="ty">int</tspan></text><text x="13" y="161" class="tf">PhoneNumber<tspan x="165.47" class="ty">int</tspan></text><text x="13" y="186" class="tf">VehicleID<tspan x="165.47" class="ty">int</tspan></text><text x="13" y="211" class="tf">Location<tspan x="165.47" class="ty">VARCHAR(28)</tspan></text></svg><svg width="197.39" height="150" x="641.24" y="216.89" id="h79873455" class="t"><rect height="40" width="197.39" class="th"></rect><text x="13" y="25" class="tht">Payment</text><rect height="110" width="197.39" class="t-bg"></rect><text x="13" y="61" class="tf">PaymentID<tspan x="184.39" class="ty">int</tspan></text><text x="13" y="86" class="tf fk">OrderID<tspan x="184.39" class="ty">int</tspan></text><text x="13" y="111" class="tf">PromoCode<tspan x="184.39" class="ty">VARCHAR(20)</tspan></text><text x="13" y="136" class="tf fk">TotalAmount<tspan x="184.39" class="ty">DECIMAL(10.2)</tspan></text></svg><svg width="222.51" height="175" x="988.02" y="583.26" id="h3126193400" class="t"><rect height="40" width="222.51" class="th"></rect><text x="13" y="25" class="tht">Restaurents</text><rect height="135" width="222.51" class="t-bg"></rect><text x="13" y="61" class="tf pk">RestaurentID<tspan x="209.51" class="ty">int</tspan></text><path d="M7,14A2,2 0 0,1 5,12A2,2 0 0,1 7,10A2,2 0 0,1 9,12A2,2 0 0,1 7,14M12.65,10C11.83,7.67 9.61,6 7, 6A6, 6 0 0, 0 1, 12A6, 6 0 0, 0 7, 18C9.61, 18 11.83, 16.33 12.65, 14H17V18H21V14H23V10H12.65Z" class="i pk" transform="translate(176.836171875, 48) scale(0.65)"></path><text x="13" y="86" class="tf">Name<tspan x="209.51" class="ty">VARCHAR(100)</tspan></text><text x="13" y="111" class="tf">Address<tspan x="209.51" class="ty">VARCHAR(100)</tspan></text><text x="13" y="136" class="tf">CulsineType<tspan x="209.51" class="ty">VARCHAR(100)</tspan></text><text x="13" y="161" class="tf">ContaactNumber<tspan x="209.51" class="ty">VARCHAR(100)</tspan></text></svg></g></g><text class="qdbd-link" x="10" y="20">www.quickdatabasediagrams.com</text></svg>